<?xml version="1.0" encoding="UTF-8" standalone="no"?>
<!-- Created with Inkscape (http://www.inkscape.org/) -->

<svg
   width="64.364677mm"
   height="52.916668mm"
   viewBox="0 0 64.364678 52.916668"
   version="1.1"
   id="svg1"
   inkscape:version="1.3.2 (091e20ef0f, 2023-11-25)"
   sodipodi:docname="ict_logo_gray.svg"
   xmlns:inkscape="http://www.inkscape.org/namespaces/inkscape"
   xmlns:sodipodi="http://sodipodi.sourceforge.net/DTD/sodipodi-0.dtd"
   xmlns="http://www.w3.org/2000/svg"
   xmlns:svg="http://www.w3.org/2000/svg">
  <sodipodi:namedview
     id="namedview1"
     pagecolor="#ffffff"
     bordercolor="#000000"
     borderopacity="0.25"
     inkscape:showpageshadow="2"
     inkscape:pageopacity="0.0"
     inkscape:pagecheckerboard="0"
     inkscape:deskcolor="#d1d1d1"
     inkscape:document-units="mm"
     inkscape:zoom="0.7786055"
     inkscape:cx="428.32988"
     inkscape:cy="136.14083"
     inkscape:window-width="1920"
     inkscape:window-height="1080"
     inkscape:window-x="0"
     inkscape:window-y="0"
     inkscape:window-maximized="1"
     inkscape:current-layer="layer1" />
  <defs
     id="defs1">
    <clipPath
       clipPathUnits="userSpaceOnUse"
       id="clipPath2">
      <path
         d="M 0,595.28 H 841.89 V 0 H 0 Z"
         transform="translate(-199.0732,-200.1609)"
         id="path2" />
    </clipPath>
    <clipPath
       clipPathUnits="userSpaceOnUse"
       id="clipPath4">
      <path
         d="M 0,595.28 H 841.89 V 0 H 0 Z"
         transform="translate(-280.99371,-174.488)"
         id="path4" />
    </clipPath>
    <clipPath
       clipPathUnits="userSpaceOnUse"
       id="clipPath6">
      <path
         d="M 0,595.28 H 841.89 V 0 H 0 Z"
         transform="translate(-359.34371,-146.9411)"
         id="path6" />
    </clipPath>
    <clipPath
       clipPathUnits="userSpaceOnUse"
       id="clipPath8">
      <path
         d="M 0,595.28 H 841.89 V 0 H 0 Z"
         transform="translate(-372.58981,-194.9997)"
         id="path8" />
    </clipPath>
    <clipPath
       clipPathUnits="userSpaceOnUse"
       id="clipPath10">
      <path
         d="M 0,595.28 H 841.89 V 0 H 0 Z"
         transform="translate(-425.66021,-147.67061)"
         id="path10" />
    </clipPath>
    <clipPath
       clipPathUnits="userSpaceOnUse"
       id="clipPath12">
      <path
         d="M 0,595.28 H 841.89 V 0 H 0 Z"
         transform="translate(-445.67291,-207.2253)"
         id="path12" />
    </clipPath>
    <clipPath
       clipPathUnits="userSpaceOnUse"
       id="clipPath14">
      <path
         d="M 0,595.28 H 841.89 V 0 H 0 Z"
         transform="translate(-501.42091,-190.06031)"
         id="path14" />
    </clipPath>
    <clipPath
       clipPathUnits="userSpaceOnUse"
       id="clipPath16">
      <path
         d="M 0,595.28 H 841.89 V 0 H 0 Z"
         transform="translate(-633.78322,-181.1667)"
         id="path16" />
    </clipPath>
    <clipPath
       clipPathUnits="userSpaceOnUse"
       id="clipPath18">
      <path
         d="M 0,595.28 H 841.89 V 0 H 0 Z"
         transform="translate(-531.14161,-202.39821)"
         id="path18" />
    </clipPath>
    <clipPath
       clipPathUnits="userSpaceOnUse"
       id="clipPath20">
      <path
         d="M 0,595.28 H 841.89 V 0 H 0 Z"
         transform="translate(-576.19822,-185.7566)"
         id="path20" />
    </clipPath>
    <clipPath
       clipPathUnits="userSpaceOnUse"
       id="clipPath22">
      <path
         d="M 0,595.28 H 841.89 V 0 H 0 Z"
         transform="translate(-572.40142,-140.4372)"
         id="path22" />
    </clipPath>
    <clipPath
       clipPathUnits="userSpaceOnUse"
       id="clipPath24">
      <path
         d="M 0,595.28 H 841.89 V 0 H 0 Z"
         transform="translate(-152.3872,-98.461605)"
         id="path24" />
    </clipPath>
    <clipPath
       clipPathUnits="userSpaceOnUse"
       id="clipPath26">
      <path
         d="M 0,595.28 H 841.89 V 0 H 0 Z"
         transform="translate(-168.27831,-113.03681)"
         id="path26" />
    </clipPath>
    <clipPath
       clipPathUnits="userSpaceOnUse"
       id="clipPath28">
      <path
         d="M 0,595.28 H 841.89 V 0 H 0 Z"
         transform="translate(-180.26661,-106.3757)"
         id="path28" />
    </clipPath>
    <clipPath
       clipPathUnits="userSpaceOnUse"
       id="clipPath30">
      <path
         d="M 0,595.28 H 841.89 V 0 H 0 Z"
         transform="translate(-186.3262,-113.05931)"
         id="path30" />
    </clipPath>
    <clipPath
       clipPathUnits="userSpaceOnUse"
       id="clipPath32">
      <path
         d="M 0,595.28 H 841.89 V 0 H 0 Z"
         transform="translate(-205.80711,-98.461605)"
         id="path32" />
    </clipPath>
    <clipPath
       clipPathUnits="userSpaceOnUse"
       id="clipPath34">
      <path
         d="M 0,595.28 H 841.89 V 0 H 0 Z"
         transform="translate(-208.53421,-113.05931)"
         id="path34" />
    </clipPath>
    <clipPath
       clipPathUnits="userSpaceOnUse"
       id="clipPath36">
      <path
         d="M 0,595.28 H 841.89 V 0 H 0 Z"
         transform="translate(-239.69781,-113.14721)"
         id="path36" />
    </clipPath>
    <clipPath
       clipPathUnits="userSpaceOnUse"
       id="clipPath38">
      <path
         d="M 0,595.28 H 841.89 V 0 H 0 Z"
         transform="translate(-240.48001,-113.05931)"
         id="path38" />
    </clipPath>
    <clipPath
       clipPathUnits="userSpaceOnUse"
       id="clipPath40">
      <path
         d="M 0,595.28 H 841.89 V 0 H 0 Z"
         transform="translate(-267.064,-98.439202)"
         id="path40" />
    </clipPath>
    <clipPath
       clipPathUnits="userSpaceOnUse"
       id="clipPath42">
      <path
         d="M 0,595.28 H 841.89 V 0 H 0 Z"
         transform="translate(-290.2588,-99.288802)"
         id="path42" />
    </clipPath>
    <clipPath
       clipPathUnits="userSpaceOnUse"
       id="clipPath44">
      <path
         d="M 0,595.28 H 841.89 V 0 H 0 Z"
         transform="translate(-299.7598,-113.073)"
         id="path44" />
    </clipPath>
    <clipPath
       clipPathUnits="userSpaceOnUse"
       id="clipPath46">
      <path
         d="M 0,595.28 H 841.89 V 0 H 0 Z"
         transform="translate(-338.57081,-101.9577)"
         id="path46" />
    </clipPath>
    <clipPath
       clipPathUnits="userSpaceOnUse"
       id="clipPath48">
      <path
         d="M 0,595.28 H 841.89 V 0 H 0 Z"
         transform="translate(-353.10551,-99.288802)"
         id="path48" />
    </clipPath>
    <clipPath
       clipPathUnits="userSpaceOnUse"
       id="clipPath50">
      <path
         d="M 0,595.28 H 841.89 V 0 H 0 Z"
         transform="translate(-375.50391,-98.410905)"
         id="path50" />
    </clipPath>
    <clipPath
       clipPathUnits="userSpaceOnUse"
       id="clipPath52">
      <path
         d="M 0,595.28 H 841.89 V 0 H 0 Z"
         transform="translate(-387.72901,-106.2077)"
         id="path52" />
    </clipPath>
    <clipPath
       clipPathUnits="userSpaceOnUse"
       id="clipPath54">
      <path
         d="M 0,595.28 H 841.89 V 0 H 0 Z"
         transform="translate(-408.18701,-113.14721)"
         id="path54" />
    </clipPath>
    <clipPath
       clipPathUnits="userSpaceOnUse"
       id="clipPath56">
      <path
         d="M 0,595.28 H 841.89 V 0 H 0 Z"
         transform="translate(-408.96921,-113.05931)"
         id="path56" />
    </clipPath>
    <clipPath
       clipPathUnits="userSpaceOnUse"
       id="clipPath58">
      <path
         d="M 0,595.28 H 841.89 V 0 H 0 Z"
         transform="translate(-428.45121,-98.461605)"
         id="path58" />
    </clipPath>
    <clipPath
       clipPathUnits="userSpaceOnUse"
       id="clipPath60">
      <path
         d="M 0,595.28 H 841.89 V 0 H 0 Z"
         transform="translate(-444.34281,-113.03681)"
         id="path60" />
    </clipPath>
    <clipPath
       clipPathUnits="userSpaceOnUse"
       id="clipPath62">
      <path
         d="M 0,595.28 H 841.89 V 0 H 0 Z"
         transform="translate(-460.37701,-105.1286)"
         id="path62" />
    </clipPath>
    <clipPath
       clipPathUnits="userSpaceOnUse"
       id="clipPath64">
      <path
         d="M 0,595.28 H 841.89 V 0 H 0 Z"
         transform="translate(-471.98831,-113.05931)"
         id="path64" />
    </clipPath>
    <clipPath
       clipPathUnits="userSpaceOnUse"
       id="clipPath66">
      <path
         d="M 0,595.28 H 841.89 V 0 H 0 Z"
         transform="translate(-498.57131,-98.439202)"
         id="path66" />
    </clipPath>
    <clipPath
       clipPathUnits="userSpaceOnUse"
       id="clipPath68">
      <path
         d="M 0,595.28 H 841.89 V 0 H 0 Z"
         transform="translate(-516.31151,-101.9577)"
         id="path68" />
    </clipPath>
    <clipPath
       clipPathUnits="userSpaceOnUse"
       id="clipPath70">
      <path
         d="M 0,595.28 H 841.89 V 0 H 0 Z"
         transform="translate(-533.55082,-98.4489)"
         id="path70" />
    </clipPath>
    <clipPath
       clipPathUnits="userSpaceOnUse"
       id="clipPath72">
      <path
         d="M 0,595.28 H 841.89 V 0 H 0 Z"
         transform="translate(-549.35452,-113.03681)"
         id="path72" />
    </clipPath>
    <clipPath
       clipPathUnits="userSpaceOnUse"
       id="clipPath74">
      <path
         d="M 0,595.28 H 841.89 V 0 H 0 Z"
         transform="translate(-564.41801,-99.288802)"
         id="path74" />
    </clipPath>
    <clipPath
       clipPathUnits="userSpaceOnUse"
       id="clipPath76">
      <path
         d="M 0,595.28 H 841.89 V 0 H 0 Z"
         transform="translate(-581.31052,-98.4831)"
         id="path76" />
    </clipPath>
    <clipPath
       clipPathUnits="userSpaceOnUse"
       id="clipPath78">
      <path
         d="M 0,595.28 H 841.89 V 0 H 0 Z"
         transform="translate(-597.10642,-99.288802)"
         id="path78" />
    </clipPath>
    <clipPath
       clipPathUnits="userSpaceOnUse"
       id="clipPath80">
      <path
         d="M 0,595.28 H 841.89 V 0 H 0 Z"
         transform="translate(-616.14062,-105.1286)"
         id="path80" />
    </clipPath>
    <clipPath
       clipPathUnits="userSpaceOnUse"
       id="clipPath82">
      <path
         d="M 0,595.28 H 841.89 V 0 H 0 Z"
         transform="translate(-632.47462,-113.0759)"
         id="path82" />
    </clipPath>
    <clipPath
       clipPathUnits="userSpaceOnUse"
       id="clipPath84">
      <path
         d="M 0,595.28 H 841.89 V 0 H 0 Z"
         transform="translate(-658.87792,-101.8718)"
         id="path84" />
    </clipPath>
    <clipPath
       clipPathUnits="userSpaceOnUse"
       id="clipPath86">
      <path
         d="M 0,595.28 H 841.89 V 0 H 0 Z"
         transform="translate(-671.17772,-104.907)"
         id="path86" />
    </clipPath>
    <clipPath
       clipPathUnits="userSpaceOnUse"
       id="clipPath88">
      <path
         d="M 0,595.28 H 841.89 V 0 H 0 Z"
         transform="translate(-692.96582,-104.9499)"
         id="path88" />
    </clipPath>
    <clipPath
       clipPathUnits="userSpaceOnUse"
       id="clipPath90">
      <path
         d="M 0,595.28 H 841.89 V 0 H 0 Z"
         transform="translate(-640.14652,-97.253602)"
         id="path90" />
    </clipPath>
    <clipPath
       clipPathUnits="userSpaceOnUse"
       id="clipPath92">
      <path
         d="M 0,595.28 H 841.89 V 0 H 0 Z"
         transform="translate(-455.37301,-390.76291)"
         id="path92" />
    </clipPath>
    <clipPath
       clipPathUnits="userSpaceOnUse"
       id="clipPath94">
      <path
         d="M 0,595.28 H 841.89 V 0 H 0 Z"
         transform="translate(-341.48931,-422.41621)"
         id="path94" />
    </clipPath>
    <clipPath
       clipPathUnits="userSpaceOnUse"
       id="clipPath96">
      <path
         d="M 0,595.28 H 841.89 V 0 H 0 Z"
         transform="translate(-546.52342,-422.41621)"
         id="path96" />
    </clipPath>
    <clipPath
       clipPathUnits="userSpaceOnUse"
       id="clipPath98">
      <path
         d="M 0,595.28 H 841.89 V 0 H 0 Z"
         transform="translate(-434.41601,-500.78491)"
         id="path98" />
    </clipPath>
    <clipPath
       clipPathUnits="userSpaceOnUse"
       id="clipPath100">
      <path
         d="M 0,595.28 H 841.89 V 0 H 0 Z"
         transform="translate(-564.76072,-404.16921)"
         id="path100" />
    </clipPath>
  </defs>
  <g
     inkscape:label="Layer 1"
     inkscape:groupmode="layer"
     id="layer1"
     transform="translate(8.4666737,-112.44792)">
    <g
       id="g100"
       transform="matrix(0.26458333,0,0,0.26458333,-141.12501,50.154324)"
       style="fill:#808080">
      <path
         id="path91"
         d="m 0,0 17.605,31.021 h -88.232 l -45.315,-82.794 h 88.213 l 14.945,27.628 h -30.25 l -3.841,-7.18 h -27.18 l 20.861,39.159 h 27.176 L -30.432,0 Z"
         style="fill:#808080;fill-opacity:1;fill-rule:nonzero;stroke:none"
         transform="matrix(0.84459923,0,0,-0.84459923,652.09793,328.36485)"
         clip-path="url(#clipPath92)" />
      <path
         id="path93"
         d="m 0,0 -46.159,-82.495 h 29.298 L 29.074,0 Z"
         style="fill:#808080;fill-opacity:1;fill-rule:nonzero;stroke:none"
         transform="matrix(0.84459923,0,0,-0.84459923,555.91185,301.63049)"
         clip-path="url(#clipPath94)" />
      <path
         id="path95"
         d="m 0,0 h -59.144 l -14.925,-25.999 h 14.665 L -91.94,-82.495 h 32.029 l 32.536,56.496 H 4.016 C 3.523,-17.487 2.58,-7.939 0,0"
         style="fill:#808080;fill-opacity:1;fill-rule:nonzero;stroke:none"
         transform="matrix(0.84459923,0,0,-0.84459923,729.08349,301.63049)"
         clip-path="url(#clipPath96)" />
      <path
         id="path97"
         d="m 0,0 c -79.693,0 -149.957,-55.5 -156.932,-123.96 -0.727,-7.179 -0.727,-14.212 -0.061,-21.053 0.072,-0.741 0.173,-1.471 0.26,-2.207 0.202,-4.125 0.943,-8.128 2.171,-11.961 0.121,-0.485 0.222,-0.97 0.347,-1.451 h 0.137 c 7.877,-22.155 32.001,-38.288 60.549,-38.288 24.738,0 46.146,12.123 56.551,29.772 -11.32,-14.608 -30.745,-24.253 -52.814,-24.253 -26.3,0 -48.841,13.694 -58.38,33.178 l 3.291,5.808 h -5.224 c -0.377,1.601 -0.725,3.213 -1.026,4.842 h 8.997 l 3.462,6.12 h -13.376 c -0.189,1.602 -0.339,3.218 -0.45,4.841 h 16.575 l 3.465,6.118 h -20.279 c -0.013,1.605 0.021,3.218 0.087,4.84 h 22.938 l 3.462,6.116 h -25.984 c 0.004,0.032 0.004,0.061 0.008,0.091 0.16,1.596 0.371,3.179 0.607,4.754 h 28.116 l 3.467,6.119 h -30.495 c 0.337,1.622 0.701,3.238 1.114,4.841 h 32.127 l 3.465,6.112 h -33.831 c 0.52,1.631 1.088,3.244 1.681,4.847 h 34.899 l 3.467,6.119 h -35.892 c 0.713,1.626 1.465,3.24 2.257,4.839 h 36.379 l 3.465,6.117 h -36.603 c 0.762,1.345 1.539,2.678 2.355,3.999 h 51.74 c 24.299,30.629 65.277,51.164 109.761,51.164 41.668,0 76.604,-18.024 95.69,-45.488 0.26,-0.174 0.496,-0.414 0.703,-0.747 C 102.754,-28.009 56.618,0 0,0"
         style="fill:#808080;fill-opacity:1;fill-rule:nonzero;stroke:none"
         transform="matrix(0.84459923,0,0,-0.84459923,634.39766,235.44035)"
         clip-path="url(#clipPath98)" />
      <path
         id="path99"
         d="M 0,0 C -2.186,33.145 -26.703,56.853 -60.271,58.656 -85.06,59.991 -107.231,47.831 -118.697,29 c 12.206,15.441 32.236,24.989 54.355,23.801 30.154,-1.618 53.654,-19.363 58.304,-49.231 0.541,-5.317 0.671,-10.753 0.337,-16.293 h -33.53 l -3.479,-6.16 h 36.442 c -0.199,-1.632 -0.424,-3.26 -0.695,-4.877 h -38.502 l -3.481,-6.153 h 40.763 c -0.374,-1.637 -0.792,-3.262 -1.239,-4.877 h -42.27 l -3.483,-6.159 h 43.853 c -0.554,-1.638 -1.144,-3.264 -1.774,-4.874 h -44.833 l -3.481,-6.158 h 45.691 c -0.755,-1.643 -1.556,-3.268 -2.385,-4.877 h -46.068 l -3.476,-6.156 h 46.138 c -0.829,-1.403 -1.677,-2.798 -2.564,-4.174 h -50.624 c -24.493,-30.174 -65.131,-50.304 -109.185,-50.304 -41.818,0 -77.223,17.528 -96.382,45.179 -0.52,0.642 -0.839,1.013 -1.04,1.347 19.556,-41.039 66.544,-69.217 123.361,-69.217 79.983,0 150.489,55.872 157.49,124.801 C 0.032,-10.568 0.463,-7.03 0,0"
         style="fill:#808080;fill-opacity:1;fill-rule:nonzero;stroke:none"
         transform="matrix(0.84459923,0,0,-0.84459923,744.4867,317.0419)"
         clip-path="url(#clipPath100)" />
    </g>
  </g>
</svg>
